<svg xmlns="http://www.w3.org/2000/svg" viewBox="0 0 65 65" id="UserExperience"><path d="M49.9931,33.41529l.07624-10.84387a1.44373,1.44373,0,0,0-1.44385-1.45117h-.00244l-12.23114.01446a10.57282,10.57282,0,0,0-.18537-1.616l-.05908-.293-2.32226-.70605c-.0459-.11914-.09522-.2373-.14649-.35352l.18915-.35351h7.49689v-1H34.40283l.418-.78125-.07226-.1084h2.49072l1.96826-1.88965h9.69275a2.11231,2.11231,0,1,0,0-1H38.80518L36.83691,14.923H34.01776a10.55036,10.55036,0,0,0-2.4245-2.165l-.26806-.17383-1.96778,1.24024c-.01806-.00781-.03613-.0166-.05469-.02442l-.42919-2.2998-.30616-.08106a10.68909,10.68909,0,0,0-5.43213.00782l-.311.083-.38428,2.28516c-.07226.03223-.144.06445-.21484.09766l-1.99365-1.19922-.26416.17871a10.54184,10.54184,0,0,0-2.96241,3.02051l-.17675.27343L18.08838,18.088c-.08154.18066-.15772.36523-.22754.55176l-2.25879.50781-.06543.31543a10.65381,10.65381,0,0,0-.2207,2.15723h.04791a1.43635,1.43635,0,0,0-.39215.98339v6.67774H9.14844A2.151,2.151,0,0,0,7,31.42982V51.77943a2.151,2.151,0,0,0,2.14844,2.14843h8.36865a2.151,2.151,0,0,0,2.14844-2.14843V43.89271h7.352l-1.88959,4.72461H38.88916l-1.89038-4.72461h4.22565A8.50542,8.50542,0,1,0,49.9931,33.41529ZM50.94678,12.421a1.11279,1.11279,0,1,1-1.1128,1.1123A1.11372,1.11372,0,0,1,50.94678,12.421ZM18.624,19.49329l.08985-.2666a7.54471,7.54471,0,0,1,.39453-.95508l.12744-.25683L18.0249,16.16712A9.52931,9.52931,0,0,1,20.26758,13.882l1.91357,1.15137.24756-.126q.31349-.16115.64258-.292l.26221-.10351.36963-2.19531a9.71849,9.71849,0,0,1,4.30468-.00586l.41162,2.20605.25342.10254c.16992.06934.3374.14258.50049.22266l.25049.12207,1.88866-1.18946a9.52919,9.52919,0,0,1,2.34181,2.31739l-1.09424,2.04492.10937.22851a7.55174,7.55174,0,0,1,.30274.72852l.08447.2373,2.22363.67578a9.59368,9.59368,0,0,1,.11542,1.12891l-3.965.0047a5.50145,5.50145,0,0,0-10.96271.013l-4.05152.00476c-.02777,0-.05377.00665-.08117.00818a9.71365,9.71365,0,0,1,.12072-1.18591Zm11.78272,1.6485-8.9151.01056a4.48,4.48,0,0,1,8.9151-.01056ZM8,31.42982a1.15,1.15,0,0,1,1.14844-1.14844h8.36865a1.15,1.15,0,0,1,1.14844,1.14844v.51562H8Zm10.66553,1.51562V49.48157H8V32.94544Zm0,18.834a1.15,1.15,0,0,1-1.14844,1.14843H9.14844A1.15,1.15,0,0,1,8,51.77943V50.48157H18.66553Zm18.74609-4.16211H26.60449l1.48975-3.72461h7.82764Zm-.813-4.72461H19.66553V40.11243h21.5058a8.19673,8.19673,0,0,0-.12928,2.78028Zm12.89112,6.51758A7.51026,7.51026,0,1,1,57,41.89954,7.519,7.519,0,0,1,49.48975,49.41029ZM45.92383,17.81263v-1h1.15234v1Zm-2.834,0v-1H44.2417v1Zm6.24414,22.582a2.03052,2.03052,0,1,0-1.43652-.59375A2.02746,2.02746,0,0,0,49.334,40.39466ZM53.15039,45.755H45.51758a3.81641,3.81641,0,0,1,7.63281,0Zm-24.63574-8.9082h1.35351v1H28.51465Zm2.65234,0h1.35352v1H31.167Zm-6.65429,1H23.15918v-1H24.5127Zm1.29882-1H27.165v1H25.81152Zm10.91993-2.90137H26.95557a.50065.50065,0,0,1-.5-.5V31.96021l4.34423-4.76184,3.88184,4.36719.74707-.66406-1.70557-1.91895.81983-.76562,2.68848,2.71881v2.5097A.50066.50066,0,0,1,36.73145,33.94544Zm-9.77588-8.09961h9.77588a.50066.50066,0,0,1,.5.5v3.16779L35.252,27.51185a1.06439,1.06439,0,0,0-1.459-.00489l-.74121.72071-1.50488-1.69336a1.07225,1.07225,0,0,0-1.54542-.00293L26.45557,30.465V26.34583A.50065.50065,0,0,1,26.95557,25.84583ZM10.27246,43.08216l-.74316-.66992,2.2705-2.51856a.8071.8071,0,0,1,1.1626.002l.67432.75976,1.03027-.69824a.7544.7544,0,0,1,1.02735.05957l1.42578,1.44141-.71094.70312-1.29443-1.30859-.80957.55371.68164.76758-.74707.66406-1.86084-2.09277Z" fill="#f28f0d" class="color000000 svgShape"></path></svg>